<!-- waves.svg -->
<svg xmlns="http://www.w3.org/2000/svg" viewBox="0 0 159 74" width="159" height="74" aria-hidden="true" focusable="false">
  <path fill="#004aad" fill-rule="evenodd" d="M147.38,42.92c-3.27,0-6.17,1.61-8,4.08h-.02c-2.15,4.16-6.41,7-11.33,7s-9.18-2.84-11.33-7h.02c-1.84-2.48-4.75-4.08-8.04-4.08s-6.2,1.61-8.04,4.08h-.02c-2.16,4.16-6.45,7-11.39,7s-9.23-2.84-11.39-7h0c-1.83-2.48-4.72-4.08-8-4.08s-6.17,1.61-8,4.08h-.02c-2.15,4.16-6.41,7-11.33,7s-9.18-2.84-11.33-7h.02c-1.84-2.48-4.75-4.08-8.04-4.08s-6.2,1.61-8.04,4.08h-.02c-2.16,4.16-6.45,7-11.39,7s-9.23-2.84-11.39-7h3.39c1.83,2.47,4.73,4.08,8,4.08s6.17-1.61,8-4.08h0c2.17-4.16,6.48-7,11.44-7s9.27,2.84,11.45,7h-.05c1.82,2.47,4.7,4.08,7.96,4.08s6.14-1.61,7.96-4.08h0c2.16-4.16,6.44-7,11.38-7s9.22,2.84,11.38,7h0c1.83,2.47,4.73,4.08,8,4.08s6.17-1.61,8-4.08h0c2.17-4.16,6.48-7,11.45-7s9.27,2.84,11.45,7h-.05c1.82,2.47,4.7,4.08,7.96,4.08s6.14-1.61,7.96-4.08h0c2.16-4.16,6.44-7,11.38-7s9.22,2.84,11.38,7h-3.39c-1.83-2.48-4.72-4.08-8-4.08ZM147.38,22.92c-3.27,0-6.17,1.61-8,4.08h-.02c-2.15,4.16-6.41,7-11.33,7s-9.18-2.84-11.33-7h.02c-1.84-2.47-4.75-4.08-8.04-4.08s-6.2,1.61-8.04,4.08h-.02c-2.16,4.16-6.45,7-11.39,7s-9.23-2.84-11.39-7h0c-1.83-2.47-4.72-4.08-8-4.08s-6.17,1.61-8,4.08h-.02c-2.15,4.16-6.41,7-11.33,7s-9.18-2.84-11.33-7h.02c-1.84-2.47-4.75-4.08-8.04-4.08s-6.2,1.61-8.04,4.08h-.02c-2.16,4.16-6.45,7-11.39,7S2.44,31.16.28,27h3.39c1.83,2.48,4.73,4.08,8,4.08s6.17-1.61,8-4.08h0c2.17-4.16,6.48-7,11.44-7s9.27,2.84,11.45,7h-.05c1.82,2.48,4.7,4.08,7.96,4.08s6.14-1.61,7.96-4.08h0c2.16-4.16,6.44-7,11.38-7s9.22,2.84,11.38,7h0c1.83,2.48,4.73,4.08,8,4.08s6.17-1.61,8-4.08h0c2.17-4.16,6.48-7,11.45-7s9.27,2.84,11.45,7h-.05c1.82,2.48,4.7,4.08,7.96,4.08s6.14-1.61,7.96-4.08h0c2.16-4.16,6.44-7,11.38-7s9.22,2.84,11.38,7h-3.39c-1.83-2.47-4.72-4.08-8-4.08ZM147.38,2.92c-3.27,0-6.17,1.61-8,4.08h-.02c-2.15,4.16-6.41,7-11.33,7s-9.18-2.84-11.33-7h.02c-1.84-2.47-4.75-4.08-8.04-4.08s-6.2,1.61-8.04,4.08h-.02c-2.16,4.16-6.45,7-11.39,7s-9.23-2.84-11.39-7h0c-1.83-2.47-4.72-4.08-8-4.08s-6.17,1.61-8,4.08h-.02c-2.15,4.16-6.41,7-11.33,7s-9.18-2.84-11.33-7h.02c-1.84-2.47-4.75-4.08-8.04-4.08s-6.2,1.61-8.04,4.08h-.02c-2.16,4.16-6.45,7-11.39,7S2.44,11.16.28,7h3.39c1.83,2.48,4.73,4.08,8,4.08s6.17-1.61,8-4.08h0C21.85,2.84,26.16,0,31.12,0s9.27,2.84,11.45,7h-.05c1.82,2.48,4.7,4.08,7.96,4.08s6.14-1.61,7.96-4.08h0C60.6,2.84,64.89,0,69.82,0s9.22,2.84,11.38,7h0c1.83,2.48,4.73,4.08,8,4.08s6.17-1.61,8-4.08h0C99.4,2.84,103.71,0,108.67,0s9.27,2.84,11.45,7h-.05c1.82,2.48,4.7,4.08,7.96,4.08s6.14-1.61,7.96-4.08h0C138.15,2.84,142.44,0,147.38,0s9.22,2.84,11.38,7h-3.39c-1.83-2.47-4.72-4.08-8-4.08ZM11.67,71.08c3.28,0,6.17-1.61,8-4.08h0c2.17-4.16,6.48-7,11.44-7s9.27,2.84,11.45,7h-.05c1.82,2.48,4.7,4.08,7.96,4.08s6.14-1.61,7.96-4.08h0c2.16-4.16,6.44-7,11.38-7s9.22,2.84,11.38,7h0c1.83,2.48,4.73,4.08,8,4.08s6.17-1.61,8-4.08h0c2.17-4.16,6.48-7,11.45-7s9.27,2.84,11.45,7h-.05c1.82,2.48,4.7,4.08,7.96,4.08s6.14-1.61,7.96-4.08h0c2.16-4.16,6.44-7,11.38-7s9.22,2.84,11.38,7h-3.39c-1.83-2.47-4.72-4.08-8-4.08s-6.17,1.61-8,4.08h-.02c-2.15,4.16-6.41,7-11.33,7s-9.18-2.84-11.33-7h.02c-1.84-2.47-4.75-4.08-8.04-4.08s-6.2,1.61-8.04,4.08h-.02c-2.16,4.16-6.45,7-11.39,7s-9.23-2.84-11.39-7h0c-1.83-2.47-4.72-4.08-8-4.08s-6.17,1.61-8,4.08h-.02c-2.15,4.16-6.41,7-11.33,7s-9.18-2.84-11.33-7h.02c-1.84-2.47-4.75-4.08-8.04-4.08s-6.2,1.61-8.04,4.08h-.02c-2.16,4.16-6.45,7-11.39,7s-9.23-2.84-11.39-7h3.39c1.83,2.48,4.73,4.08,8,4.08Z"/>
</svg>
